<svg xmlns="http://www.w3.org/2000/svg" xmlns:xlink="http://www.w3.org/1999/xlink" preserveAspectRatio="xMidYMid meet" width="90" height="90" viewBox="0 0 90 90" style="width:100%;height:100%"><defs><animateMotion repeatCount="indefinite" dur="6s" begin="0s" xlink:href="#_R_G_L_1_G" fill="freeze" keyTimes="0;0.0277778;0.25;0.5555556;0.7222222;1" path="M50 0 C50,0 50,0 50,0 C50,0 50,-540 50,-540 C50,-540 50,-540 50,-540 C50,-540 50,-360 50,-360 C50,-360 50,-360 50,-360 " keyPoints="0;0;0.75;0.75;1;1" keySplines="0.5 0 0 1;0.5 0 0 1;1 1 0.5 0.5;0.5 0 0 1;0 0 0 0" calcMode="spline"/><animateMotion repeatCount="indefinite" dur="6s" begin="0s" xlink:href="#_R_G_L_0_G" fill="freeze" keyTimes="0;0.0416667;0.2638889;0.5416667;0.7083333;1" path="M0 0 C0,0 0,0 0,0 C0,0 0,-540 0,-540 C0,-540 0,-540 0,-540 C0,-540 0,-360 0,-360 C0,-360 0,-360 0,-360 " keyPoints="0;0;0.75;0.75;1;1" keySplines="0.5 0 0 1;0.5 0 0 1;1 1 0.5 0.5;0.5 0 0 1;0 0 0 0" calcMode="spline"/><animate attributeType="XML" attributeName="opacity" dur="6s" from="0" to="1" xlink:href="#time_group"/></defs><g id="_R_G"><g id="_R_G_L_2_G"><rect id="_R_G_L_2_G_S" fill="#000000" width="90" height="90"/></g><g id="_R_G_L_1_G"><path id="_R_G_L_1_G_D_0_P_0" fill="#ffffff" fill-opacity="1" fill-rule="nonzero" d=" M0.25 20 C0.25,20 20.25,20 20.25,20 C20.25,20 20.25,30 20.25,30 C20.25,30 0.25,30 0.25,30 C0.25,30 0.25,60 0.25,60 C0.25,60 30.25,60 30.25,60 C30.25,60 30.25,50 30.25,50 C30.25,50 10.25,50 10.25,50 C10.25,50 10.25,40 10.25,40 C10.25,40 30.25,40 30.25,40 C30.25,40 30.25,10 30.25,10 C30.25,10 0.25,10 0.25,10 C0.25,10 0.25,20 0.25,20z "/><path id="_R_G_L_1_G_D_1_P_0" fill="#ffffff" fill-opacity="1" fill-rule="nonzero" d=" M0.25 110 C0.25,110 20.25,110 20.25,110 C20.25,110 20.25,120 20.25,120 C20.25,120 0.25,120 0.25,120 C0.25,120 0.25,150 0.25,150 C0.25,150 30.25,150 30.25,150 C30.25,150 30.25,140 30.25,140 C30.25,140 10.25,140 10.25,140 C10.25,140 10.25,130 10.25,130 C10.25,130 30.25,130 30.25,130 C30.25,130 30.25,100 30.25,100 C30.25,100 0.25,100 0.25,100 C0.25,100 0.25,110 0.25,110z "/><path id="_R_G_L_1_G_D_2_P_0" fill="#ffffff" fill-opacity="1" fill-rule="nonzero" d=" M0.25 200 C0.25,200 20.25,200 20.25,200 C20.25,200 20.25,210 20.25,210 C20.25,210 0.25,210 0.25,210 C0.25,210 0.25,240 0.25,240 C0.25,240 30.25,240 30.25,240 C30.25,240 30.25,230 30.25,230 C30.25,230 10.25,230 10.25,230 C10.25,230 10.25,220 10.25,220 C10.25,220 30.25,220 30.25,220 C30.25,220 30.25,190 30.25,190 C30.25,190 0.25,190 0.25,190 C0.25,190 0.25,200 0.25,200z "/><path id="_R_G_L_1_G_D_3_P_0" fill="#ffffff" fill-opacity="1" fill-rule="nonzero" d=" M0.25 290 C0.25,290 20.25,290 20.25,290 C20.25,290 20.25,300 20.25,300 C20.25,300 0.25,300 0.25,300 C0.25,300 0.25,330 0.25,330 C0.25,330 30.25,330 30.25,330 C30.25,330 30.25,320 30.25,320 C30.25,320 10.25,320 10.25,320 C10.25,320 10.25,310 10.25,310 C10.25,310 30.25,310 30.25,310 C30.25,310 30.25,280 30.25,280 C30.25,280 0.25,280 0.25,280 C0.25,280 0.25,290 0.25,290z "/><path id="_R_G_L_1_G_D_4_P_0" fill="#ffffff" fill-opacity="1" fill-rule="nonzero" d=" M0.25 380 C0.25,380 20.25,380 20.25,380 C20.25,380 20.25,390 20.25,390 C20.25,390 0.25,390 0.25,390 C0.25,390 0.25,420 0.25,420 C0.25,420 30.25,420 30.25,420 C30.25,420 30.25,410 30.25,410 C30.25,410 10.25,410 10.25,410 C10.25,410 10.25,400 10.25,400 C10.25,400 30.25,400 30.25,400 C30.25,400 30.25,370 30.25,370 C30.25,370 0.25,370 0.25,370 C0.25,370 0.25,380 0.25,380z "/><path id="_R_G_L_1_G_D_5_P_0" fill="#ffffff" fill-opacity="1" fill-rule="nonzero" d=" M0.25 470 C0.25,470 20.25,470 20.25,470 C20.25,470 20.25,480 20.25,480 C20.25,480 0.25,480 0.25,480 C0.25,480 0.25,510 0.25,510 C0.25,510 30.25,510 30.25,510 C30.25,510 30.25,500 30.25,500 C30.25,500 10.25,500 10.25,500 C10.25,500 10.25,490 10.25,490 C10.25,490 30.25,490 30.25,490 C30.25,490 30.25,460 30.25,460 C30.25,460 0.25,460 0.25,460 C0.25,460 0.25,470 0.25,470z "/><path id="_R_G_L_1_G_D_6_P_0" fill="#ffffff" fill-opacity="1" fill-rule="nonzero" d=" M0.25 560 C0.25,560 20.25,560 20.25,560 C20.25,560 20.25,570 20.25,570 C20.25,570 0.25,570 0.25,570 C0.25,570 0.25,600 0.25,600 C0.25,600 30.25,600 30.25,600 C30.25,600 30.25,590 30.25,590 C30.25,590 10.25,590 10.25,590 C10.25,590 10.25,580 10.25,580 C10.25,580 30.25,580 30.25,580 C30.25,580 30.25,550 30.25,550 C30.25,550 0.25,550 0.25,550 C0.25,550 0.25,560 0.25,560z "/></g><g id="_R_G_L_0_G"><path id="_R_G_L_0_G_D_0_P_0" fill="#ffffff" fill-opacity="1" fill-rule="nonzero" d=" M10 40 C10,40 30,40 30,40 C30,40 30,80 30,80 C30,80 40,80 40,80 C40,80 40,30 40,30 C40,30 10,30 10,30 C10,30 10,40 10,40z "/><path id="_R_G_L_0_G_D_1_P_0" fill="#ffffff" fill-opacity="1" fill-rule="nonzero" d=" M10 130 C10,130 30,130 30,130 C30,130 30,170 30,170 C30,170 40,170 40,170 C40,170 40,120 40,120 C40,120 10,120 10,120 C10,120 10,130 10,130z "/><path id="_R_G_L_0_G_D_2_P_0" fill="#ffffff" fill-opacity="1" fill-rule="nonzero" d=" M10 220 C10,220 30,220 30,220 C30,220 30,260 30,260 C30,260 40,260 40,260 C40,260 40,210 40,210 C40,210 10,210 10,210 C10,210 10,220 10,220z "/><path id="_R_G_L_0_G_D_3_P_0" fill="#ffffff" fill-opacity="1" fill-rule="nonzero" d=" M10 310 C10,310 30,310 30,310 C30,310 30,350 30,350 C30,350 40,350 40,350 C40,350 40,300 40,300 C40,300 10,300 10,300 C10,300 10,310 10,310z "/><path id="_R_G_L_0_G_D_4_P_0" fill="#ffffff" fill-opacity="1" fill-rule="nonzero" d=" M10 400 C10,400 30,400 30,400 C30,400 30,440 30,440 C30,440 40,440 40,440 C40,440 40,390 40,390 C40,390 10,390 10,390 C10,390 10,400 10,400z "/><path id="_R_G_L_0_G_D_5_P_0" fill="#ffffff" fill-opacity="1" fill-rule="nonzero" d=" M10 490 C10,490 30,490 30,490 C30,490 30,530 30,530 C30,530 40,530 40,530 C40,530 40,480 40,480 C40,480 10,480 10,480 C10,480 10,490 10,490z "/><path id="_R_G_L_0_G_D_6_P_0" fill="#ffffff" fill-opacity="1" fill-rule="nonzero" d=" M10 580 C10,580 30,580 30,580 C30,580 30,620 30,620 C30,620 40,620 40,620 C40,620 40,570 40,570 C40,570 10,570 10,570 C10,570 10,580 10,580z "/></g></g><g id="time_group"/></svg>